PathFileType	4	(X/Y/Z)	C:\Users\dbl\Desktop\20210112\20210112\bx_n_0_503.trc
DataRate	CameraRate	NumFrames	NumMarkers	Units	OrigDataRate	OrigDataStartFrame	OrigNumFrames
50.00	50.00	       4	43	mm	50.00	209	       333
Frame#	Time	Top.Head			R.Acromium			L.Acromium			Sternum			R.ASIS			L.ASIS			V.Sacral			R.Thigh.Upper			R.Thigh.Front			R.Thigh.Rear			R.Knee.Lat			R.Knee.Med			R.Shank.Upper			R.Shank.Front			R.Shank.Rear			R.Ankle.Lat			R.Midfoot.Lat			R.Toe.Lat			R.Toe.Tip			R.Toe.Med			R.Ankle.Med			R.Midfoot.Sup			R.Heel			L.Thigh.Upper			L.Thigh.Front			L.Thigh.Rear			L.Knee.Lat			L.Knee.Med			L.Shank.Upper			L.Shank.Front			L.Shank.Rear			L.Ankle.Lat			L.Midfoot.Lat			L.Toe.Lat			L.Toe.Tip			L.Toe.Med			L.Ankle.Med			L.Midfoot.Sup			L.Heel			origin1 front left			origin2 front right			origin 3 back right			origin 4 back leftt			
		X1	Y1	Z1	X2	Y2	Z2	X3	Y3	Z3	X4	Y4	Z4	X5	Y5	Z5	X6	Y6	Z6	X7	Y7	Z7	X8	Y8	Z8	X9	Y9	Z9	X10	Y10	Z10	X11	Y11	Z11	X12	Y12	Z12	X13	Y13	Z13	X14	Y14	Z14	X15	Y15	Z15	X16	Y16	Z16	X17	Y17	Z17	X18	Y18	Z18	X19	Y19	Z19	X20	Y20	Z20	X21	Y21	Z21	X22	Y22	Z22	X23	Y23	Z23	X24	Y24	Z24	X25	Y25	Z25	X26	Y26	Z26	X27	Y27	Z27	X28	Y28	Z28	X29	Y29	Z29	X30	Y30	Z30	X31	Y31	Z31	X32	Y32	Z32	X33	Y33	Z33	X34	Y34	Z34	X35	Y35	Z35	X36	Y36	Z36	X37	Y37	Z37	X38	Y38	Z38	X39	Y39	Z39	X40	Y40	Z40	X41	Y41	Z41	X42	Y42	Z42	X43	Y43	Z43	

209	4.160	-249.37192	134.24344	1582.61157	-413.56699	-64.62340	1339.74182	-432.73871	288.29193	1338.54785	-502.60938	107.40324	1146.98584	-718.27734	-10.32700	1014.52802	-717.89325	234.24991	1034.15112	-903.22791	89.76451	1093.50256	-792.03101	-75.48471	869.03357	-704.27667	-11.08453	806.55408	-790.18701	-68.59103	751.25629	-783.20117	-38.71848	610.56311	-764.47998	70.98193	568.09998	-783.07520	-36.39510	564.48297	-726.55182	12.69630	524.44971	-811.76013	-50.11042	479.41681	-763.41235	-22.39575	204.11783	-648.10229	-67.84315	161.26207	-605.67181	-72.27071	157.75180	-549.63330	-22.60802	162.51871	-601.24725	28.51677	167.41960	-726.04224	65.57904	218.89058	-675.66992	51.80331	161.52711	-794.98639	35.85873	173.61646	-809.33691	283.32797	870.24597	-704.03247	216.72780	797.04297	-793.45264	274.66577	736.34766	-811.88586	255.64522	631.13818	-764.63104	142.58582	570.53760	-794.69025	248.44254	569.24341	-737.19354	203.92294	536.57782	-820.10083	262.94891	491.24524	-768.56805	229.76045	203.35153	-652.38660	291.03177	156.41162	-614.95343	297.24561	158.70557	-554.03308	241.48756	165.44812	-590.27429	206.93874	173.18762	-720.42371	153.25922	220.49014	-676.57642	168.27757	160.58102	-797.54346	183.72769	182.02400	-528.12634	303.98050	146.51401	-517.89484	-72.96655	143.15897	-875.79193	-78.62155	141.03304	-882.59973	296.07733	144.70821	
210	4.180	-254.87872	134.01178	1589.56836	-416.04550	-64.75772	1344.36426	-435.05328	288.19019	1343.14771	-502.94601	107.41441	1150.87036	-717.26062	-10.16041	1015.50623	-717.65808	234.01042	1034.91187	-902.67896	89.60046	1093.11157	-790.91980	-75.30255	869.25134	-703.09857	-11.07616	806.62335	-789.19122	-68.55260	751.50330	-782.46942	-38.81126	610.72913	-763.77820	71.02012	568.23560	-782.41138	-36.39368	564.58551	-725.99060	12.73887	524.48224	-811.26733	-50.17394	479.56711	-763.36078	-22.39468	204.14978	-648.12091	-67.85682	161.27681	-605.67914	-72.24025	157.76236	-549.59515	-22.60111	162.52844	-601.22375	28.51998	167.40891	-726.01678	65.67993	218.90086	-675.64337	51.78198	161.43723	-794.99091	35.95914	173.66338	-808.43146	283.26871	870.37695	-703.07605	216.75520	797.07275	-792.66571	274.69357	736.50653	-811.26025	255.51613	631.29126	-763.83820	142.50369	570.74622	-794.15161	248.29927	569.32281	-736.68506	203.80061	536.52338	-819.74927	262.81216	491.53357	-768.53448	229.75438	203.41267	-652.37225	291.03433	156.41093	-614.95862	297.21069	158.67467	-553.99304	241.52544	165.49281	-590.22455	206.95213	173.21196	-720.35211	153.21024	220.54793	-676.54285	168.24860	160.58987	-797.45374	183.61491	182.08273	-528.13721	304.04996	146.52898	-517.92072	-72.96474	143.12663	-875.78326	-78.61319	141.06551	-882.61981	296.07190	144.67140	
211	4.200	-260.53796	133.70178	1596.55261	-418.59412	-64.85375	1348.99536	-437.49695	288.08170	1347.79028	-503.33121	107.40492	1154.77185	-716.21423	-10.03962	1016.43182	-717.29504	233.92120	1035.79346	-902.20032	89.42306	1092.75195	-789.85046	-75.15682	869.43866	-701.96887	-11.03987	806.61584	-788.27533	-68.55318	751.71240	-781.76978	-38.88682	610.88983	-763.15515	71.05425	568.38995	-781.78937	-36.39531	564.67303	-725.47009	12.77944	524.50067	-810.79956	-50.20363	479.69272	-763.35126	-22.43185	204.21143	-648.13031	-67.85124	161.24069	-605.70764	-72.22239	157.76376	-549.58124	-22.59144	162.53387	-601.19275	28.50412	167.42244	-726.01746	65.77621	218.90045	-675.63904	51.74641	161.37555	-794.95490	36.01170	173.65901	-807.50574	283.23218	870.54480	-702.09430	216.76077	797.08264	-791.83832	274.70367	736.71130	-810.67706	255.45351	631.42108	-763.13245	142.50398	570.88147	-793.65314	248.11642	569.36353	-736.14661	203.70941	536.48920	-819.40112	262.67828	491.77164	-768.51471	229.74146	203.46201	-652.35687	291.04556	156.42361	-614.98407	297.17169	158.64619	-553.95453	241.56290	165.55251	-590.16589	206.96703	173.25208	-720.29633	153.14558	220.57777	-676.52014	168.23639	160.58624	-797.38727	183.50955	182.14513	-528.14685	304.07611	146.52104	-517.94647	-72.97191	143.10588	-875.78601	-78.63188	141.09854	-882.65051	296.08997	144.63852	
212	4.220	-266.33231	133.33379	1603.53992	-421.23639	-64.93218	1353.65344	-440.05307	287.97278	1352.48486	-503.74442	107.41925	1158.66418	-715.11926	-9.95190	1017.32806	-716.79150	234.00247	1036.77563	-901.76404	89.28307	1092.42065	-788.81696	-75.05047	869.57568	-700.91138	-11.01489	806.60559	-787.38605	-68.55579	751.85193	-781.07446	-38.90495	611.01239	-762.54224	71.06705	568.52661	-781.16022	-36.36034	564.71777	-724.93359	12.78875	524.49799	-810.31537	-50.23027	479.82843	-763.35889	-22.47277	204.27864	-648.12683	-67.82073	161.17732	-605.74359	-72.23745	157.76006	-549.58423	-22.58595	162.53087	-601.15863	28.49375	167.45552	-726.00079	65.87923	218.92340	-675.64520	51.72457	161.37498	-794.92090	36.05177	173.64923	-806.51038	283.20825	870.73462	-701.07849	216.76447	797.10101	-790.98334	274.67017	736.93115	-810.06293	255.40829	631.50574	-762.52417	142.59424	570.90472	-793.10803	247.97000	569.36523	-735.55353	203.65210	536.48895	-818.99335	262.54703	491.90308	-768.50787	229.72198	203.49141	-652.34656	291.04822	156.45175	-615.00012	297.14862	158.62773	-553.93524	241.57224	165.58118	-590.10052	206.97408	173.30528	-720.27478	153.07161	220.57385	-676.51099	168.23558	160.57906	-797.34247	183.42752	182.19460	-528.14618	304.06378	146.49860	-517.95770	-72.98011	143.11136	-875.80176	-78.66630	141.11867	-882.66785	296.11401	144.62280	
